<svg width="16" height="15" viewBox="0 0 16 15" fill="none" xmlns="http://www.w3.org/2000/svg">
<path d="M14.8282 1.58722C13.2661 0.0251251 10.7334 0.0251251 9.17134 1.58722L9.08224 1.67633C9.36641 1.84417 9.63429 2.05016 9.87845 2.29433C10.1226 2.53849 10.3286 2.80637 10.4965 3.09054L10.5856 3.00144C11.3666 2.22039 12.6329 2.22039 13.414 3.00144C14.195 3.78248 14.195 5.04881 13.414 5.82986L7.12156 12.1223C5.94999 13.2939 4.0505 13.2939 2.87892 12.1223C1.70735 10.9507 1.70735 9.05123 2.87892 7.87966L6.34296 4.41565C6.73349 4.02513 7.36665 4.02513 7.75717 4.41565C8.1477 4.80617 8.1477 5.43934 7.75717 5.82986L5.05054 8.5365C4.66002 8.92702 4.66002 9.56018 5.05054 9.95071C5.44107 10.3412 6.07423 10.3412 6.46476 9.95071L9.17139 7.24408C10.343 6.0725 10.343 4.17301 9.17139 3.00144C7.99981 1.82986 6.10032 1.82986 4.92875 3.00144L1.46471 6.46544C-0.487911 8.41807 -0.487911 11.5839 1.46471 13.5365C3.41733 15.4891 6.58316 15.4891 8.53578 13.5365L14.8282 7.24408C16.3903 5.68198 16.3903 3.14932 14.8282 1.58722Z" fill="#D9DADD"/>
</svg>
