<svg width="14" height="14" viewBox="0 0 14 14" fill="none" xmlns="http://www.w3.org/2000/svg">
<path fill-rule="evenodd" clip-rule="evenodd" d="M4.15081 5.24074C3.73148 4.88132 3.10018 4.92988 2.74076 5.34921C2.38134 5.76853 2.4299 6.39983 2.84923 6.75926L7.00002 10.3171L11.1508 6.75926C11.5701 6.39983 11.6187 5.76853 11.2593 5.34921C10.8999 4.92988 10.2686 4.88132 9.84923 5.24074L8.00002 6.82578V1C8.00002 0.447715 7.5523 0 7.00002 0C6.44773 0 6.00002 0.447715 6.00002 1V6.82578L4.15081 5.24074ZM1 12C0.447715 12 0 12.4477 0 13C0 13.5523 0.447715 14 1 14H13C13.5523 14 14 13.5523 14 13C14 12.4477 13.5523 12 13 12H1Z" fill="#D9DADD"/>
</svg>
