<svg width="20" height="20" viewBox="0 0 20 20" fill="none" xmlns="http://www.w3.org/2000/svg">
<path fill-rule="evenodd" clip-rule="evenodd" d="M11.6717 7.50071C11.1784 7.17106 10.5983 6.99512 10.005 6.99512C9.20936 6.99512 8.44629 7.31119 7.88368 7.8738C7.32107 8.43641 7.005 9.19947 7.005 9.99512C7.005 10.5885 7.18095 11.1685 7.5106 11.6618C7.84024 12.1552 8.30878 12.5397 8.85695 12.7668C9.40513 12.9938 10.0083 13.0532 10.5903 12.9375C11.1722 12.8217 11.7068 12.536 12.1263 12.1164C12.5459 11.6969 12.8316 11.1623 12.9474 10.5804C13.0631 9.99845 13.0037 9.39525 12.7766 8.84707C12.5496 8.29889 12.1651 7.83035 11.6717 7.50071ZM9.17354 10.5507C9.06365 10.3862 9.005 10.1929 9.005 9.99512C9.005 9.7299 9.11036 9.47555 9.2979 9.28801C9.48543 9.10047 9.73979 8.99512 10.005 8.99512C10.2028 8.99512 10.3961 9.05377 10.5606 9.16365C10.725 9.27353 10.8532 9.42971 10.9289 9.61243C11.0046 9.79516 11.0244 9.99623 10.9858 10.1902C10.9472 10.3842 10.852 10.5624 10.7121 10.7022C10.5723 10.8421 10.3941 10.9373 10.2001 10.9759C10.0061 11.0145 9.80505 10.9947 9.62232 10.919C9.4396 10.8433 9.28342 10.7151 9.17354 10.5507Z" fill="#333333"/>
<path fill-rule="evenodd" clip-rule="evenodd" d="M9.02505 2.05519H11.025C11.1976 2.05419 11.3675 2.09787 11.5182 2.18198C11.6689 2.26609 11.7953 2.38777 11.885 2.53519L12.735 3.95519C12.8248 4.10261 12.9512 4.22429 13.1019 4.30841C13.2526 4.39252 13.4225 4.4362 13.595 4.43519H15.785C15.9596 4.43625 16.1308 4.48295 16.2816 4.57067C16.4325 4.65838 16.5578 4.78405 16.645 4.93519L17.705 6.85519C17.7928 7.00721 17.839 7.17966 17.839 7.35519C17.839 7.53073 17.7928 7.70317 17.705 7.85519L16.705 9.54519C16.6173 9.69721 16.5711 9.86966 16.5711 10.0452C16.5711 10.2207 16.6173 10.3932 16.705 10.5452L17.705 12.2352C17.7928 12.3872 17.839 12.5597 17.839 12.7352C17.839 12.9107 17.7928 13.0832 17.705 13.2352L16.645 15.0752C16.5578 15.2263 16.4325 15.352 16.2816 15.4397C16.1308 15.5274 15.9596 15.5741 15.785 15.5752H13.595C13.4225 15.5742 13.2526 15.6179 13.1019 15.702C12.9512 15.7861 12.8248 15.9078 12.735 16.0552L11.885 17.4552C11.7965 17.6045 11.6707 17.7281 11.5199 17.8141C11.3691 17.9 11.1986 17.9452 11.025 17.9452H9.02505C8.8515 17.9452 8.68096 17.9 8.53017 17.8141C8.37938 17.7281 8.25355 17.6045 8.16505 17.4552L7.27505 16.0352C7.1853 15.8878 7.05894 15.7661 6.90824 15.682C6.75753 15.5979 6.58763 15.5542 6.41505 15.5552H4.22505C4.05053 15.5541 3.87933 15.5074 3.72846 15.4197C3.57759 15.332 3.4523 15.2063 3.36505 15.0552L2.29505 13.1552C2.20728 13.0032 2.16107 12.8307 2.16107 12.6552C2.16107 12.4797 2.20728 12.3072 2.29505 12.1552L3.29505 10.4652C3.38281 10.3132 3.42902 10.1407 3.42902 9.96519C3.42902 9.78966 3.38281 9.61721 3.29505 9.46519L2.29505 7.77519C2.20728 7.62317 2.16107 7.45073 2.16107 7.27519C2.16107 7.09966 2.20728 6.92721 2.29505 6.77519L3.36505 4.93519C3.4523 4.78405 3.57759 4.65838 3.72846 4.57067C3.87933 4.48295 4.05053 4.43625 4.22505 4.43519H6.41505C6.58763 4.4362 6.75753 4.39252 6.90824 4.30841C7.05894 4.22429 7.1853 4.10261 7.27505 3.95519L8.16505 2.53519C8.25479 2.38777 8.38116 2.26609 8.53186 2.18198C8.68256 2.09787 8.85246 2.05419 9.02505 2.05519ZM11.025 4.98519L10.465 4.05519H9.54505L8.98505 4.98519C8.71792 5.42785 8.34093 5.79396 7.89065 6.04802C7.44036 6.30207 6.93206 6.43544 6.41505 6.43519H4.80505L4.62505 6.75519L4.32505 7.26519L5.03505 8.49519C5.31538 8.96179 5.46348 9.49586 5.46348 10.0402C5.46348 10.5845 5.31538 11.1186 5.03505 11.5852L4.32505 12.7752L4.61505 13.2652L4.80505 13.6052H6.41505C6.93206 13.6049 7.44036 13.7383 7.89065 13.9924C8.34093 14.2464 8.71792 14.6125 8.98505 15.0552L9.54505 15.9852H10.465L11.025 15.0552C11.2872 14.6051 11.662 14.231 12.1127 13.9698C12.5633 13.7085 13.0742 13.5691 13.595 13.5652H15.205L15.395 13.2352L15.685 12.7352L14.965 11.5452C14.6847 11.0786 14.5366 10.5445 14.5366 10.0002C14.5366 9.45586 14.6847 8.92179 14.965 8.45519L15.645 7.26519L15.345 6.74519L15.165 6.43519H13.595C13.078 6.43544 12.5697 6.30207 12.1194 6.04802C11.6692 5.79396 11.2922 5.42785 11.025 4.98519Z" fill="#333333"/>
</svg>
