<svg width="12" height="10" viewBox="0 0 12 10" fill="none" xmlns="http://www.w3.org/2000/svg">
<path fill-rule="evenodd" clip-rule="evenodd" d="M10.8 8.19995C11.2416 8.19995 11.6 8.55835 11.6 8.99995C11.6 9.44155 11.2416 9.79995 10.8 9.79995H1.20002C0.758424 9.79995 0.400024 9.44155 0.400024 8.99995C0.400024 8.55835 0.758424 8.19995 1.20002 8.19995H10.8ZM10.8 4.19995C11.2416 4.19995 11.6 4.55835 11.6 4.99995C11.6 5.44155 11.2416 5.79995 10.8 5.79995H1.20002C0.758424 5.79995 0.400024 5.44155 0.400024 4.99995C0.400024 4.55835 0.758424 4.19995 1.20002 4.19995H10.8ZM10.8 0.199951C11.2416 0.199951 11.6 0.558351 11.6 0.999951C11.6 1.44155 11.2416 1.79995 10.8 1.79995H1.20002C0.758424 1.79995 0.400024 1.44155 0.400024 0.999951C0.400024 0.558351 0.758424 0.199951 1.20002 0.199951H10.8Z" fill="#E7E8EA"/>
</svg>
